<?xml version="1.0" encoding="UTF-8" standalone="no"?>
<!-- Created with Inkscape (http://www.inkscape.org/) -->

<svg
   version="1.1"
   id="svg1"
   width="1142.6667"
   height="1032"
   viewBox="0 0 1142.6667 1032"
   xmlns="http://www.w3.org/2000/svg"
   xmlns:svg="http://www.w3.org/2000/svg">
  <defs
     id="defs1">
    <clipPath
       clipPathUnits="userSpaceOnUse"
       id="clipPath2">
      <path
         d="M 0,0 H 857 V 774 H 0 Z"
         id="path2" />
    </clipPath>
    <clipPath
       clipPathUnits="userSpaceOnUse"
       id="clipPath3">
      <path
         d="M 0,0 H 857 V 774 H 0 Z"
         transform="scale(1,1.2539829)"
         id="path3" />
    </clipPath>
    <clipPath
       clipPathUnits="userSpaceOnUse"
       id="clipPath6">
      <path
         d="M 39.969,365.57 H 853.258 V 516.855 H 39.969 Z"
         transform="scale(1.3333333)"
         id="path6" />
    </clipPath>
    <clipPath
       clipPathUnits="userSpaceOnUse"
       id="clipPath7">
      <path
         d="M 0,0 H 857 V 774 H 0 Z"
         transform="scale(1,1.2539829)"
         id="path7" />
    </clipPath>
    <clipPath
       clipPathUnits="userSpaceOnUse"
       id="clipPath9">
      <path
         d="M 39.969,365.57 H 853.258 V 516.855 H 39.969 Z"
         transform="scale(1.3333333)"
         id="path9" />
    </clipPath>
    <clipPath
       clipPathUnits="userSpaceOnUse"
       id="clipPath11">
      <path
         d="M 0,0 H 857 V 774 H 0 Z"
         transform="scale(1.0003111,1)"
         id="path11" />
    </clipPath>
    <clipPath
       clipPathUnits="userSpaceOnUse"
       id="clipPath13">
      <path
         d="m 40.379,207.668 h 813.293 v 189.77 H 40.379 Z"
         transform="scale(1.3333333)"
         id="path13" />
    </clipPath>
    <clipPath
       clipPathUnits="userSpaceOnUse"
       id="clipPath14">
      <path
         d="M 0,0 H 857 V 774 H 0 Z"
         transform="scale(1.0003111,1)"
         id="path14" />
    </clipPath>
    <clipPath
       clipPathUnits="userSpaceOnUse"
       id="clipPath16">
      <path
         d="m 40.379,207.668 h 813.293 v 189.77 H 40.379 Z"
         transform="scale(1.3333333)"
         id="path16" />
    </clipPath>
    <clipPath
       clipPathUnits="userSpaceOnUse"
       id="clipPath17">
      <path
         d="M 0,0 H 857 V 774 H 0 Z"
         transform="scale(1.0003111,1)"
         id="path17" />
    </clipPath>
    <clipPath
       clipPathUnits="userSpaceOnUse"
       id="clipPath19">
      <path
         d="m 40.379,207.668 h 813.293 v 189.77 H 40.379 Z"
         transform="scale(1.3333333)"
         id="path19" />
    </clipPath>
    <clipPath
       clipPathUnits="userSpaceOnUse"
       id="clipPath21">
      <path
         d="m 40.379,207.668 h 813.293 v 189.77 H 40.379 Z"
         id="path21" />
    </clipPath>
    <clipPath
       clipPathUnits="userSpaceOnUse"
       id="clipPath23">
      <path
         d="m 40.379,207.668 h 813.293 v 189.77 H 40.379 Z"
         id="path23" />
    </clipPath>
    <clipPath
       clipPathUnits="userSpaceOnUse"
       id="clipPath27">
      <path
         d="M 0,0 H 857 V 774 H 0 Z"
         id="path27" />
    </clipPath>
    <clipPath
       clipPathUnits="userSpaceOnUse"
       id="clipPath28">
      <path
         d="M 0,0 H 857 V 774 H 0 Z"
         transform="scale(1.0003111,1)"
         id="path28" />
    </clipPath>
    <clipPath
       clipPathUnits="userSpaceOnUse"
       id="clipPath31">
      <path
         d="m 40.219,503.512 h 813.289 v 189.77 H 40.219 Z"
         transform="scale(1.3333333)"
         id="path31" />
    </clipPath>
    <clipPath
       clipPathUnits="userSpaceOnUse"
       id="clipPath32">
      <path
         d="M 0,0 H 857 V 774 H 0 Z"
         transform="scale(1.0003111,1)"
         id="path32" />
    </clipPath>
    <clipPath
       clipPathUnits="userSpaceOnUse"
       id="clipPath34">
      <path
         d="M 40.219,502.91 H 853.508 V 692.676 H 40.219 Z"
         transform="scale(1.3333333)"
         id="path34" />
    </clipPath>
    <clipPath
       clipPathUnits="userSpaceOnUse"
       id="clipPath36">
      <path
         d="M 40.219,502.91 H 853.508 V 692.676 H 40.219 Z"
         id="path36" />
    </clipPath>
    <clipPath
       clipPathUnits="userSpaceOnUse"
       id="clipPath49">
      <path
         d="M 0,0 H 857 V 774 H 0 Z"
         id="path49" />
    </clipPath>
    <clipPath
       clipPathUnits="userSpaceOnUse"
       id="clipPath51">
      <path
         d="M 39.719,0 H 853.008 V 177.207 H 39.719 Z"
         transform="scale(1.3333333)"
         id="path51" />
    </clipPath>
    <clipPath
       clipPathUnits="userSpaceOnUse"
       id="clipPath53">
      <path
         d="M 39.719,0 H 853.008 V 177.207 H 39.719 Z"
         id="path53" />
    </clipPath>
    <clipPath
       clipPathUnits="userSpaceOnUse"
       id="clipPath54">
      <path
         d="M 0,0 H 857 V 774 H 0 Z"
         transform="scale(1.0003111,1)"
         id="path54" />
    </clipPath>
    <clipPath
       clipPathUnits="userSpaceOnUse"
       id="clipPath56">
      <path
         d="M 39.719,0 H 853.008 V 177.207 H 39.719 Z"
         transform="scale(1.3333333)"
         id="path56" />
    </clipPath>
    <clipPath
       clipPathUnits="userSpaceOnUse"
       id="clipPath57">
      <path
         d="M 0,0 H 857 V 774 H 0 Z"
         transform="scale(1.0003111,1)"
         id="path57" />
    </clipPath>
    <clipPath
       clipPathUnits="userSpaceOnUse"
       id="clipPath59">
      <path
         d="M 39.719,0 H 853.008 V 177.207 H 39.719 Z"
         transform="scale(1.3333333)"
         id="path59" />
    </clipPath>
    <clipPath
       clipPathUnits="userSpaceOnUse"
       id="clipPath60">
      <path
         d="M 0,0 H 857 V 774 H 0 Z"
         transform="scale(1.0003111,1)"
         id="path60" />
    </clipPath>
    <clipPath
       clipPathUnits="userSpaceOnUse"
       id="clipPath61">
      <path
         d="M 0,0 H 857 V 774 H 0 Z"
         transform="scale(1.0003111,1)"
         id="path61" />
    </clipPath>
    <clipPath
       clipPathUnits="userSpaceOnUse"
       id="clipPath62">
      <path
         d="M 0,0 H 857 V 774 H 0 Z"
         transform="scale(1.0003111,1)"
         id="path62" />
    </clipPath>
    <clipPath
       clipPathUnits="userSpaceOnUse"
       id="clipPath66">
      <path
         d="M 39.719,0 H 853.008 V 177.207 H 39.719 Z"
         transform="scale(1.3333333)"
         id="path66" />
    </clipPath>
    <clipPath
       clipPathUnits="userSpaceOnUse"
       id="clipPath68">
      <path
         d="M 39.719,0 H 853.008 V 177.207 H 39.719 Z"
         id="path68" />
    </clipPath>
    <clipPath
       clipPathUnits="userSpaceOnUse"
       id="clipPath69">
      <path
         d="M 39.719,0 H 853.008 V 177.207 H 39.719 Z"
         transform="matrix(1,0,0,0.99968872,-47.12756,-106.81868)"
         id="path69" />
    </clipPath>
  </defs>
  <g
     id="g1">
    <path
       id="path1"
       d="M 0,0 H 857 V 774 H 0 Z"
       style="fill:#fffffd;fill-opacity:1;fill-rule:nonzero;stroke:none"
       transform="scale(1.3333333)" />
    <g
       id="g5"
       clip-path="url(#clipPath6)">
      <path
         d="M 76.934,457.961 V 653.012 H 816.293 V 457.961 H 738.27 l -7.43,-0.008 -3.719,-0.008 -3.715,-0.011 -3.715,-0.024 -3.714,-0.035 -3.715,-0.059 -3.715,-0.093 -3.715,-0.141 -3.715,-0.215 -3.719,-0.312 -3.714,-0.45 -3.715,-0.625 -3.715,-0.847 -3.715,-1.113 -3.715,-1.418 -3.715,-1.743 -3.718,-2.07 -3.715,-2.355 -3.715,-2.555 -3.715,-2.613 -3.715,-2.489 -3.715,-2.125 -3.714,-1.5 -3.715,-0.593 -3.719,0.558 -3.715,1.938 -3.715,3.457 -3.715,5.039 -3.714,6.578 -3.715,6.492 -3.715,-7.742 -3.715,-6.32 -3.719,-4.762 -3.715,-3.188 -3.714,-1.683 -3.715,-0.34 -3.715,0.773 -3.715,1.625 -3.715,2.207 -3.718,2.524 -3.715,2.617 -3.715,2.527 -3.715,2.313 -3.715,2.012 -3.715,1.687 -3.715,1.363 -3.714,1.063 -3.719,0.805 -3.715,0.593 -3.715,0.422 -3.715,0.293 -3.715,0.199 -3.714,0.133 -3.715,0.086 -3.719,0.055 -3.715,0.031 -3.715,0.024 -3.715,0.011 -11.144,0.012 H 496.77 l -3.715,0.004 h -48.301 l -3.715,0.004 -3.715,0.008 -3.715,0.019 -3.714,0.031 -3.715,0.067 -3.715,0.117 -3.715,0.211 -3.719,0.351 -3.715,0.571 -3.714,0.883 -3.715,1.3 -3.715,1.856 -3.715,2.527 -3.715,3.32 -3.719,4.204 -3.714,5.132 -3.715,6.055 -3.715,6.906 -3.715,7.621 -3.715,8.153 -3.715,8.437 -3.714,-6.254 -3.719,-8.25 -3.715,-7.781 -3.715,-7.109 -3.715,-6.289 -3.715,-5.379 -3.714,-4.446 -3.715,-3.55 -3.719,-2.739 -3.715,-2.039 -3.715,-1.468 -3.715,-1.032 -3.714,-0.718 -3.715,-0.524 -3.715,-0.414 -3.715,-0.383 -3.719,-0.414 -3.715,-0.488 -3.714,-0.594 -3.715,-0.715 -3.715,-0.828 -3.715,-0.918 -3.715,-0.941 -3.715,-0.867 -3.718,-0.66 -3.715,-0.29 -3.715,0.266 -3.715,1.016 -3.715,1.945 -3.715,3.02 -3.714,4.183 -3.719,5.375 -3.715,6.52 -3.715,7.523 -3.715,3.902 -3.715,-7.941 -3.714,-7.023 -3.715,-5.93 -3.715,-4.758 -3.719,-3.57 -3.715,-2.442 -3.714,-1.437 -3.715,-0.602 -3.715,0.047 -3.715,0.504 -3.715,0.789 -3.719,0.918 -3.714,0.938 -3.715,0.875 -3.715,0.765 -3.715,0.633 -3.715,0.508 -3.715,0.387 -3.715,0.289 -3.718,0.203 -3.715,0.144 -3.715,0.098 -3.715,0.062 -3.715,0.043 -3.715,0.028 -3.714,0.015 -3.715,0.008 -3.719,0.008 -3.715,0.004 h -18.574 l -3.719,0.004 H 80.652 Z"
         style="fill:#ee7bc1;fill-opacity:0.302368;fill-rule:nonzero;stroke:none"
         transform="scale(1.3333333)"
         clip-path="url(#clipPath2)"
         id="path4" />
      <path
         d="m 76.934,574.275 v 244.59 H 816.293 V 574.275 H 738.27 l -7.43,-0.01 -3.719,-0.009 -3.715,-0.015 -3.715,-0.03 -3.714,-0.044 -3.715,-0.073 -3.715,-0.118 -3.715,-0.176 -3.715,-0.269 -3.719,-0.392 -3.714,-0.564 -3.715,-0.783 -3.715,-1.063 -3.715,-1.396 -3.715,-1.778 -3.715,-2.185 -3.718,-2.596 -3.715,-2.954 -3.715,-3.203 -3.715,-3.277 -3.715,-3.121 -3.715,-2.664 -3.714,-1.881 -3.715,-0.745 -3.719,0.7 -3.715,2.43 -3.715,4.335 -3.715,6.319 -3.714,8.249 -3.715,8.141 -3.715,-9.709 -3.715,-7.925 -3.719,-5.971 -3.715,-3.997 -3.714,-2.112 -3.715,-0.426 -3.715,0.97 -3.715,2.038 -3.715,2.767 -3.718,3.165 -3.715,3.282 -3.715,3.169 -3.715,2.9 -3.715,2.522 -3.715,2.117 -3.715,1.709 -3.714,1.332 -3.719,1.01 -3.715,0.744 -3.715,0.529 -3.715,0.367 -3.715,0.25 -3.714,0.167 -3.715,0.108 -3.719,0.068 -3.715,0.039 -3.715,0.03 -3.715,0.014 -11.144,0.015 H 496.77 l -3.715,0.005 h -48.301 l -3.715,0.005 -3.715,0.01 -3.715,0.024 -3.714,0.039 -3.715,0.084 -3.715,0.147 -3.715,0.264 -3.719,0.441 -3.715,0.715 -3.714,1.107 -3.715,1.631 -3.715,2.327 -3.715,3.169 -3.715,4.164 -3.719,5.271 -3.714,6.436 -3.715,7.593 -3.715,8.66 -3.715,9.557 -3.715,10.222 -3.715,10.581 -3.714,-7.842 -3.719,-10.346 -3.715,-9.757 -3.715,-8.915 -3.715,-7.887 -3.715,-6.745 -3.714,-5.574 -3.715,-4.453 -3.719,-3.433 -3.715,-2.557 -3.715,-1.842 -3.715,-1.293 -3.714,-0.902 -3.715,-0.656 -3.715,-0.519 -3.715,-0.48 -3.719,-0.52 -3.715,-0.612 -3.714,-0.744 -3.715,-0.897 -3.715,-1.038 -3.715,-1.151 -3.715,-1.181 -3.715,-1.087 -3.718,-0.828 -3.715,-0.363 -3.715,0.333 -3.715,1.274 -3.715,2.439 -3.715,3.787 -3.714,5.246 -3.719,6.74 -3.715,8.176 -3.715,9.434 -3.715,4.893 -3.715,-9.958 -3.714,-8.807 -3.715,-7.436 -3.715,-5.966 -3.719,-4.477 -3.715,-3.062 -3.714,-1.802 -3.715,-0.755 -3.715,0.059 -3.715,0.632 -3.715,0.989 -3.719,1.151 -3.714,1.176 -3.715,1.097 -3.715,0.96 -3.715,0.794 -3.715,0.637 -3.715,0.485 -3.715,0.362 -3.718,0.255 -3.715,0.181 -3.715,0.123 -3.715,0.078 -3.715,0.054 -3.715,0.034 -3.714,0.02 -3.715,0.009 -3.719,0.01 -3.715,0.005 h -18.574 l -3.719,0.005 H 80.652 Z"
         style="fill:none;stroke:#90ee90;stroke-width:1.00015;stroke-linecap:butt;stroke-linejoin:round;stroke-miterlimit:4;stroke-dasharray:none;stroke-opacity:0.7"
         transform="scale(1.3333333,1.0632787)"
         clip-path="url(#clipPath3)"
         id="path5" />
    </g>
    <g
       id="g8"
       clip-path="url(#clipPath9)">
      <path
         d="m 76.934,574.275 70.593,-0.078 11.145,-0.255 7.433,-0.441 3.715,-0.357 3.715,-0.485 3.715,-0.637 3.715,-0.799 3.715,-0.96 7.429,-2.268 3.719,-1.156 3.715,-0.984 3.715,-0.637 3.715,-0.059 3.715,0.755 3.714,1.807 3.715,3.062 3.719,4.477 3.715,5.961 3.715,7.441 3.714,8.802 3.715,9.958 3.715,-4.888 3.715,-9.439 3.715,-8.171 3.719,-6.74 3.714,-5.251 3.715,-3.782 3.715,-2.439 3.715,-1.274 3.715,-0.338 3.715,0.368 3.718,0.828 7.43,2.268 7.43,2.189 3.715,0.897 3.714,0.744 7.434,1.127 7.43,1.004 3.715,0.651 3.714,0.907 3.715,1.293 3.715,1.842 3.715,2.552 3.719,3.433 3.715,4.453 3.714,5.579 3.715,6.745 3.715,7.882 3.715,8.915 3.715,9.757 3.719,10.351 3.714,7.842 3.715,-10.585 3.715,-10.218 3.715,-9.562 3.715,-8.655 3.715,-7.593 3.714,-6.436 3.719,-5.271 3.715,-4.164 3.715,-3.174 3.715,-2.322 3.715,-1.636 3.714,-1.102 3.715,-0.715 3.719,-0.441 3.715,-0.264 7.43,-0.231 14.859,-0.078 85.453,-0.103 7.434,-0.176 7.429,-0.417 3.715,-0.367 3.715,-0.529 3.715,-0.744 3.719,-1.01 3.714,-1.332 3.715,-1.709 3.715,-2.117 3.715,-2.522 3.715,-2.9 11.148,-9.616 3.715,-2.767 3.715,-2.043 3.715,-0.97 3.715,0.431 3.714,2.112 3.715,3.997 3.719,5.971 3.715,7.925 3.715,9.709 7.429,-16.395 3.715,-6.314 3.715,-4.335 3.715,-2.43 3.719,-0.705 3.715,0.75 3.714,1.881 3.715,2.664 3.715,3.121 7.43,6.48 3.715,2.954 3.718,2.596 3.715,2.185 3.715,1.778 3.715,1.396 3.715,1.063 3.715,0.783 3.714,0.564 3.719,0.392 7.43,0.445 7.43,0.191 14.863,0.098 81.738,0.01 h 3.715"
         style="fill:none;stroke:#ee7bc1;stroke-width:2.0003;stroke-linecap:square;stroke-linejoin:round;stroke-miterlimit:4;stroke-dasharray:none;stroke-opacity:1"
         transform="scale(1.3333333,1.0632787)"
         clip-path="url(#clipPath7)"
         id="path8" />
    </g>
    <path
       id="path10"
       d="m 408.188,213.934 1.957,-6.075 2.097,6.024 6.379,-0.016 -5.082,3.856 1.988,6.066 -5.238,-3.644 -5.148,3.765 1.843,-6.109 -5.172,-3.735 z"
       style="fill:#ff853f;fill-opacity:1;fill-rule:nonzero;stroke:none"
       transform="scale(1.3333333)" />
    <g
       id="g12"
       clip-path="url(#clipPath13)">
      <path
         d="m 77.372,315.258 7.432,9.742 7.436,9.184 3.716,4.14 3.716,3.953 7.432,7.371 3.716,3.606 7.436,7.672 7.432,7.894 3.716,3.789 3.716,3.329 3.716,2.562 3.716,1.734 3.719,0.602 3.716,-0.688 3.716,-2.023 3.716,-3.477 3.716,-4.859 3.716,-6.258 3.716,-7.504 3.716,-8.683 11.152,-28.371 3.716,-8.399 3.716,-6.777 3.716,-4.688 3.716,-2.484 3.716,-0.402 3.72,1.476 3.716,2.356 3.716,2.504 3.716,1.921 3.716,0.555 3.716,-1.156 3.716,-2.777 3.72,-4.286 11.148,-15.531 3.716,-3.875 3.716,-2.398 3.716,-0.914 3.716,0.625 3.72,1.785 7.432,4.949 3.716,2.055 3.716,1.242 3.716,0.012 3.716,-1.059 3.72,-2.223 3.716,-2.91 7.432,-6.558 3.716,-2.821 3.716,-2.039 3.716,-1.34 3.716,-0.238 3.72,0.535 3.716,1.555 3.716,2.383 3.716,3.402 3.716,4.297 3.716,5.203 3.716,6.082 7.436,13.36 3.716,6.66 3.716,5.757 3.716,4.571 3.716,2.445 3.716,0.082 3.716,-2.656 3.72,-5.41 3.716,-8.032 3.716,-10.222 3.716,-11.766 7.432,-25.301 3.716,-11.89 3.716,-10.656 3.72,-8.676 3.716,-6.449 3.716,-3.723 3.716,-0.836 3.716,2.145 3.716,5.218 3.716,8.145 3.72,10.418 3.716,12.578 3.716,13.496 3.716,13.984 3.716,13.207 3.716,11.828 3.716,9.86 3.716,7.558 3.72,5.372 3.716,3.316 3.716,2.043 3.716,1.074 11.148,2.195 3.719,0.75 3.716,0.231 3.716,-0.254 3.716,-1.516 3.716,-2.8 3.716,-4.25 3.716,-5.676 3.716,-6.824 3.72,-7.59 11.148,-24.184 3.716,-7.437 3.716,-7.086 3.716,-6.332 3.716,-5.66 3.72,-5.059 3.716,-4.379 3.716,-3.535 3.716,-2.875 3.716,-1.672 3.716,-0.684 3.716,0.438 3.72,1.812 3.716,2.934 3.716,3.949 7.432,9.516 3.716,4.281 3.716,3.594 3.716,2.09 3.72,0.515 3.716,-1.152 3.716,-2.43 3.716,-3.293 3.716,-3.668 3.716,-3.285 3.716,-2.504 3.72,-1.14 3.716,0.25 3.716,1.84 3.716,3.023 3.716,4.195 7.432,9.992 3.716,5.168 3.72,4.696 3.716,4.023 3.716,3.309 3.716,2.551 3.716,1.664 3.716,1.254 3.716,0.824 11.152,2.203 3.716,1.098 7.432,2.843 7.432,2.864 3.72,1.324 7.432,2.394 3.716,1.473 3.716,2.019 3.716,2.778 3.716,3.742 3.716,4.719 3.72,5.683 7.432,12.461 3.716,5.75 3.716,4.489 3.716,2.468 3.716,0.125 3.72,-2.832 3.716,-5.765 3.716,-8.481 3.716,-10.961 3.716,-12.547 7.432,-26.336 3.716,-11.769 3.719,-9.688 3.716,-6.953 3.716,-3.804 3.716,-0.559 3.716,2.656 3.716,5.563 3.716,7.789"
         style="fill:none;stroke:#ff853f;stroke-width:2.00092;stroke-linecap:square;stroke-linejoin:round;stroke-miterlimit:4;stroke-dasharray:none;stroke-opacity:1"
         transform="scale(1.3329187,1.3333333)"
         clip-path="url(#clipPath11)"
         id="path12" />
    </g>
    <g
       id="g15"
       clip-path="url(#clipPath16)">
      <path
         d="m 77.372,304.652 3.716,3.778 7.436,6.648 3.716,2.949 3.716,2.594 3.716,2.274 3.716,1.617 3.716,1.172 3.716,0.476 3.716,-0.215 3.72,-1.281 3.716,-1.848 3.716,-2.609 3.716,-3.367 3.716,-4.004 3.716,-4.84 3.716,-5.348 3.719,-5.882 7.432,-12.903 3.716,-6.539 3.716,-6.203 3.716,-5.933 3.716,-5.567 3.716,-5.059 3.72,-4.496 3.716,-4.168 3.716,-3.562 3.716,-2.777 3.716,-1.793 3.716,-0.532 3.716,1.02 3.716,2.594 3.72,4.109 3.716,5.59 11.148,19.851 3.716,5.762 3.716,4.297 3.72,2.848 3.716,1.609 3.716,0.031 3.716,-0.726 3.716,-1.426 3.716,-1.898 3.716,-2.313 3.716,-2.469 3.72,-2.621 3.716,-2.879 7.432,-6.133 3.716,-2.539 3.716,-2.015 3.716,-0.778 3.72,0.817 3.716,2.691 3.716,4.504 3.716,6.453 3.716,7.832 3.716,8.743 3.716,9.078 3.716,8.476 3.72,7.528 3.716,5.992 3.716,4.019 3.716,2.246 3.716,0.285 3.716,-1.078 3.716,-1.918 7.436,-4.828 3.716,-1.941 3.716,-1.098 3.716,-0.281 3.716,0.559 3.716,1.039 3.716,1.726 3.72,1.879 7.432,3.41 3.716,1.172 3.716,0.715 3.716,0.207 3.716,-0.387 3.716,-0.875 3.72,-1.379 3.716,-2.097 3.716,-2.77 3.716,-3.246 7.432,-7.918 3.716,-3.734 3.72,-3.047 3.716,-1.879 3.716,-0.219 3.716,1.387 3.716,3.023 3.716,4.313 7.432,10.504 3.72,4.594 3.716,3.656 3.716,2.226 3.716,0.723 3.716,-0.863 3.716,-1.852 3.716,-2.656 7.435,-6.082 3.716,-2.867 3.716,-2.223 3.716,-1.777 3.716,-0.782 3.716,0.188 3.716,1.23 3.72,2.278 3.716,3.004 3.716,3.738 7.432,8.226 3.716,3.668 3.716,3.157 3.716,1.949 3.72,0.82 3.716,-0.183 3.716,-1.278 3.716,-2.215 3.716,-2.703 3.716,-3.422 3.716,-3.941 3.72,-4.273 3.716,-4.575 3.716,-4.867 7.432,-10.242 3.716,-5.395 7.432,-10.23 7.436,-9.691 3.716,-4.797 3.716,-4.551 3.716,-4.297 3.716,-3.887 3.716,-3.101 3.72,-2.098 3.716,-0.769 3.716,0.925 3.716,2.606 3.716,4.422 3.716,5.976 3.716,7.336 3.716,8.117 7.436,17.176 3.716,7.926 3.716,7.027 3.716,5.809 3.716,4.309 3.716,2.73 3.72,1.141 3.716,-0.161 3.716,-1.468 3.716,-2.567 3.716,-3.043 3.716,-3.336 3.716,-2.796 3.716,-1.887 3.72,-0.914 3.716,0.777 3.716,2.285 3.716,3.731 3.716,5.07 3.716,6.215 7.432,13.566 3.72,6.371 3.716,5.286 3.716,3.925 3.716,2.067 h 3.716 l 3.716,-1.879 3.716,-3.387 7.436,-8.566 3.716,-3.469 3.716,-1.746 3.716,0.426 3.716,2.879 3.716,5.003 3.716,6.461 7.435,14.914 3.716,6.356 3.716,5.285 3.716,3.32 3.716,1.703 3.716,-0.054"
         style="fill:none;stroke:#2981d8;stroke-width:2.00092;stroke-linecap:square;stroke-linejoin:round;stroke-miterlimit:4;stroke-dasharray:none;stroke-opacity:1"
         transform="scale(1.3329187,1.3333333)"
         clip-path="url(#clipPath14)"
         id="path15" />
    </g>
    <g
       id="g18"
       clip-path="url(#clipPath19)">
      <path
         d="m 77.372,304.055 3.716,6.23 3.716,3.887 3.72,1.855 3.716,-0.078 3.716,-1.418 3.716,-2.199 3.716,-2.644 3.716,-2.215 3.716,-2 3.716,-1.422 3.72,-1.028 3.716,-0.632 3.716,-0.977 3.716,-1.266 7.432,-3.187 3.716,-1.266 3.719,-0.453 3.716,0.492 3.716,2.676 3.716,4.352 3.716,6.488 3.716,8.297 3.716,9.695 7.436,19.766 3.716,8.582 3.716,6.508 3.716,3.918 3.716,0.957 3.716,-2.203 3.716,-4.918 3.716,-7.418 3.72,-9.227 11.148,-30.621 3.716,-8.824 3.716,-7.137 3.716,-5.496 3.72,-3.738 3.716,-1.938 3.716,-0.652 3.716,0.746 3.716,1.98 3.716,3.02 3.716,4.199 3.716,5.715 3.72,6.918 3.716,8.34 3.716,9.461 3.716,9.871 3.716,10.34 3.716,9.308 3.716,8.106 3.72,6.14 3.716,3.407 3.716,0.664 3.716,-2.141 3.716,-4.48 3.716,-6.571 3.716,-7.629 3.716,-7.89 3.72,-7.407 3.716,-6.339 3.716,-4.883 3.716,-3.145 3.716,-1.918 3.716,-0.82 7.436,-0.426 3.716,-0.262 11.148,-1.781 3.716,0.008 3.716,0.891 3.716,1.765 3.72,3.055 3.716,3.664 7.432,8.672 3.716,3.965 3.716,3.035 3.716,1.527 3.716,0.145 3.72,-1.5 3.716,-2.75 3.716,-3.684 3.716,-4.246 3.716,-4.559 7.432,-9.601 3.72,-4.832 11.148,-15.746 3.716,-4.832 3.716,-4.125 3.716,-3.203 3.716,-1.914 3.72,-0.332 3.716,1.179 3.716,2.696 3.716,3.82 3.716,4.793 3.716,5.562 11.151,17.778 3.716,5.3 3.716,4.782 3.716,4.195 3.716,3.039 3.716,2.297 3.716,1.535 3.72,1.063 3.716,0.39 3.716,-0.008 3.716,-0.312 7.432,-1.352 3.716,-1.281 3.716,-1.66 3.72,-2.078 3.716,-2.457 3.716,-2.664 3.716,-3.098 7.432,-5.793 3.716,-2.461 3.72,-2.23 7.432,-3.864 3.716,-2.187 3.716,-2.691 3.716,-3.196 3.716,-3.957 3.716,-4.469 3.72,-5.066 7.432,-10.941 3.716,-5.715 3.716,-5.465 3.716,-5.266 3.716,-4.832 3.72,-4.273 3.716,-3.387 3.716,-2.023 3.716,-0.668 3.716,1.144 3.716,3.168 3.716,5.418 3.716,7.613 3.72,9.5 3.716,10.668 7.432,22.86 3.716,10.582 3.716,9.199 3.716,6.813 3.72,4.566 3.716,1.91 3.716,-0.176 3.716,-2 3.716,-3.179 3.716,-3.7 3.716,-3.871 3.716,-3.398 3.72,-2.641 3.716,-2.234 3.716,-1.277 3.716,-0.864 7.432,-0.539 3.716,-0.058 3.716,0.406 3.72,0.64 3.716,1.184 3.716,1.879 3.716,2.273 3.716,2.973 7.432,6.992 3.72,3.367 3.716,2.719 3.716,1.93 3.716,0.801 3.716,-0.328 3.716,-1.614 3.716,-2.457 7.435,-5.547 3.716,-2.254 3.716,-1.347 3.716,-0.035 3.716,1.461 3.716,3.015 3.716,5.196"
         style="fill:none;stroke:#00a340;stroke-width:2.00092;stroke-linecap:square;stroke-linejoin:round;stroke-miterlimit:4;stroke-dasharray:none;stroke-opacity:1"
         transform="scale(1.3329187,1.3333333)"
         clip-path="url(#clipPath17)"
         id="path18" />
    </g>
    <path
       id="path20"
       d="m 189.18,234.414 1.953,-6.074 2.101,6.027 6.379,-0.019 -5.082,3.859 1.989,6.063 -5.239,-3.641 -5.148,3.766 1.844,-6.11 -5.172,-3.738 z"
       style="fill:#3e8ddc;fill-opacity:1;fill-rule:nonzero;stroke:none"
       transform="scale(1.3333333)"
       clip-path="url(#clipPath21)" />
    <path
       id="path22"
       d="m 632.051,244.934 1.953,-6.079 2.098,6.028 6.382,-0.02 -5.082,3.86 1.989,6.062 -5.239,-3.64 -5.152,3.765 1.844,-6.109 -5.172,-3.735 z"
       style="fill:#00a340;fill-opacity:1;fill-rule:nonzero;stroke:none"
       transform="scale(1.3333333)"
       clip-path="url(#clipPath23)" />
    <path
       id="path24"
       d="m 643.059,431.926 1.957,-6.074 2.097,6.023 6.379,-0.016 -5.082,3.856 1.988,6.066 -5.238,-3.644 -5.148,3.765 1.843,-6.109 -5.171,-3.734 z"
       style="fill:#ee7bc1;fill-opacity:1;fill-rule:nonzero;stroke:none"
       transform="scale(1.3333333)" />
    <path
       id="path25"
       d="m 804.105,458.809 h 12.852 v 58.004 h -12.852 z"
       style="fill:#fad7ec;fill-opacity:1;fill-rule:nonzero;stroke:none"
       transform="scale(1.3333333)" />
    <path
       id="path26"
       d="m 75.934,458.785 h 12.852 v 58.082 H 75.934 Z"
       style="fill:#fad7ec;fill-opacity:1;fill-rule:nonzero;stroke:none"
       transform="scale(1.3333333)" />
    <g
       id="g30"
       clip-path="url(#clipPath31)">
      <path
         d="m 77.184,693.281 v -6.113 h 48.3 l 3.715,-0.004 h 3.715 l 3.719,-0.004 3.715,-0.008 3.714,-0.011 3.715,-0.02 3.715,-0.027 3.715,-0.047 3.715,-0.07 3.715,-0.106 3.718,-0.148 3.715,-0.219 3.715,-0.305 3.715,-0.41 3.715,-0.547 3.715,-0.703 3.715,-0.871 3.718,-1.016 3.715,-1.093 3.715,-1.032 3.715,-0.715 3.715,-0.058 3.715,0.969 3.714,2.257 3.715,3.395 3.719,3.676 3.715,2.523 3.715,0.688 3.714,0.019 h 11.145 l 3.719,-0.168 3.715,-1.511 3.714,-3.258 3.715,-3.699 3.715,-2.907 3.715,-1.629 3.715,-0.433 3.715,0.422 3.718,0.902 3.715,1.086 3.715,1.07 3.715,0.953 3.715,0.793 3.715,0.637 3.714,0.496 3.715,0.391 3.719,0.32 3.715,0.293 3.715,0.316 3.715,0.387 3.714,0.512 3.715,0.676 3.715,0.855 3.719,0.981 3.715,0.98 3.715,0.813 3.714,0.5 3.715,0.191 3.715,0.027 3.715,0.004 h 22.293 l 3.715,-0.004 3.715,-0.054 3.718,-0.262 3.715,-0.586 3.715,-0.871 3.715,-0.988 3.715,-0.942 3.715,-0.785 3.714,-0.59 3.715,-0.41 3.719,-0.266 3.715,-0.16 3.715,-0.093 3.715,-0.051 3.714,-0.028 3.715,-0.011 3.715,-0.008 h 3.715 l 3.719,-0.004 h 59.445 l 11.144,-0.012 3.715,-0.008 3.715,-0.015 3.719,-0.024 3.715,-0.035 3.715,-0.062 3.714,-0.098 3.715,-0.144 3.715,-0.223 3.715,-0.332 3.715,-0.488 3.719,-0.707 3.714,-1.032 3.715,-1.492 3.715,-2.144 3.715,-3.075 3.715,-4.375 3.715,-6.144 3.718,-8.43 3.715,-11.195 3.715,-14.188 3.715,-16.855 3.715,-18.293 3.715,-17.219 3.714,-12.133 3.715,-1.539 3.719,15.727 3.715,40.168 3.715,68.637 3.715,-58.653 3.714,-45.121 3.715,-19.461 3.715,-0.961 3.715,10.723 3.719,16.668 3.715,18.324 3.714,17.231 3.715,14.695 3.715,11.707 3.715,8.883 3.715,6.504 3.719,4.644 3.714,3.274 3.715,2.285 3.715,1.586 3.715,1.097 3.715,0.762 3.715,0.52 3.714,0.351 3.719,0.238 3.715,0.161 3.715,0.101 3.715,0.066 3.715,0.043 3.714,0.028 3.715,0.015 3.719,0.008 7.43,0.008 h 3.715 l 3.714,0.004 h 74.309 v 6.109 H 80.902 Z"
         style="fill:#4d4d4d;fill-opacity:0.25;fill-rule:nonzero;stroke:none"
         transform="scale(1.3333333)"
         clip-path="url(#clipPath27)"
         id="path29" />
      <path
         d="m 77.208,693.281 v -6.113 h 48.315 l 3.716,-0.004 h 3.716 l 3.72,-0.004 3.716,-0.008 3.716,-0.011 3.716,-0.02 3.716,-0.027 3.716,-0.047 3.716,-0.07 3.716,-0.106 3.72,-0.148 3.716,-0.219 3.716,-0.305 3.716,-0.41 3.716,-0.547 3.716,-0.703 3.716,-0.871 3.72,-1.016 3.716,-1.093 3.716,-1.032 3.716,-0.715 3.716,-0.058 3.716,0.969 3.716,2.257 3.716,3.395 3.72,3.676 3.716,2.523 3.716,0.688 3.716,0.019 h 11.148 l 3.72,-0.168 3.716,-1.511 3.716,-3.258 3.716,-3.699 3.716,-2.907 3.716,-1.629 3.716,-0.433 3.716,0.422 3.72,0.902 3.716,1.086 3.716,1.07 3.716,0.953 3.716,0.793 3.716,0.637 3.716,0.496 3.716,0.391 3.72,0.32 3.716,0.293 3.716,0.316 3.716,0.387 3.716,0.512 3.716,0.676 3.716,0.855 3.72,0.981 3.716,0.98 3.716,0.813 3.716,0.5 3.716,0.191 3.716,0.027 3.716,0.004 h 22.3 l 3.716,-0.004 3.716,-0.054 3.72,-0.262 3.716,-0.586 3.716,-0.871 3.716,-0.988 3.716,-0.942 3.716,-0.785 3.716,-0.59 3.716,-0.41 3.719,-0.266 3.716,-0.16 3.716,-0.093 3.716,-0.051 3.716,-0.028 3.716,-0.011 3.716,-0.008 h 3.716 l 3.72,-0.004 h 59.464 l 11.148,-0.012 3.716,-0.008 3.716,-0.015 3.72,-0.024 3.716,-0.035 3.716,-0.062 3.716,-0.098 3.716,-0.144 3.716,-0.223 3.716,-0.332 3.716,-0.488 3.72,-0.707 3.716,-1.032 3.716,-1.492 3.716,-2.144 3.716,-3.075 3.716,-4.375 3.716,-6.144 3.72,-8.43 3.716,-11.195 3.716,-14.188 3.716,-16.855 3.716,-18.293 3.716,-17.219 3.716,-12.133 3.716,-1.539 3.72,15.727 3.716,40.168 3.716,68.637 3.716,-58.653 3.716,-45.121 3.716,-19.461 3.716,-0.961 3.716,10.723 3.72,16.668 3.716,18.324 3.716,17.231 3.716,14.695 3.716,11.707 3.716,8.883 3.716,6.504 3.72,4.644 3.716,3.274 3.716,2.285 3.716,1.586 3.716,1.097 3.716,0.762 3.716,0.52 3.716,0.351 3.72,0.238 3.716,0.161 3.716,0.101 3.716,0.066 3.716,0.043 3.716,0.028 3.716,0.015 3.72,0.008 7.432,0.008 h 3.716 l 3.716,0.004 h 74.331 v 6.109 H 80.928 Z"
         style="fill:none;stroke:#800080;stroke-width:1.00046;stroke-linecap:butt;stroke-linejoin:round;stroke-miterlimit:4;stroke-dasharray:none;stroke-opacity:0.3"
         transform="scale(1.3329187,1.3333333)"
         clip-path="url(#clipPath28)"
         id="path30" />
    </g>
    <g
       id="g33"
       clip-path="url(#clipPath34)">
      <path
         d="m 77.208,686.562 74.331,-0.074 11.148,-0.218 7.436,-0.372 7.432,-0.714 3.716,-0.547 3.716,-0.703 3.716,-0.868 11.152,-3.14 3.716,-0.715 3.716,-0.063 3.716,0.973 3.716,2.258 3.716,3.391 3.72,3.679 3.716,2.524 3.716,0.683 14.864,0.02 3.72,-0.164 3.716,-1.516 3.716,-3.258 3.716,-3.699 3.716,-2.906 3.716,-1.629 3.716,-0.434 3.716,0.422 3.72,0.903 7.432,2.156 3.716,0.953 3.716,0.797 3.716,0.633 7.432,0.886 14.868,1.317 3.716,0.511 3.716,0.68 3.716,0.852 7.436,1.965 3.716,0.812 3.716,0.5 3.716,0.188 14.868,0.031 22.296,-0.059 3.72,-0.258 3.716,-0.589 3.716,-0.868 7.432,-1.933 3.716,-0.781 3.716,-0.594 3.716,-0.41 7.435,-0.426 11.148,-0.168 37.164,-0.028 63.184,-0.093 7.432,-0.157 7.432,-0.371 3.716,-0.328 3.716,-0.488 3.72,-0.711 3.716,-1.031 3.716,-1.488 3.716,-2.145 3.716,-3.074 3.716,-4.379 3.716,-6.141 3.72,-8.429 3.716,-11.196 3.716,-14.187 3.716,-16.86 3.716,-18.293 3.716,-17.218 3.716,-12.129 3.716,-1.539 3.72,15.726 3.716,40.164 3.716,68.641 3.716,-58.656 3.716,-45.118 0.57,-3.535 0.25,-3.05 0.36,-2.149 0.82,-3.269 0.743,-3.012 1.528,-3.203 0.941,-0.973 0.981,-0.226 0.832,0.101 0.497,0.543 0.687,1.113 0.88,2.008 0.715,2.07 1.344,3.883 3.72,16.664 3.716,18.328 3.716,17.227 3.716,14.695 3.716,11.711 3.716,8.879 3.716,6.504 3.72,4.649 3.716,3.269 3.716,2.285 3.716,1.586 3.716,1.102 3.716,0.758 3.716,0.519 3.716,0.356 7.436,0.394 11.148,0.211 22.3,0.062 h 78.047"
         style="fill:none;stroke:#4d4d4d;stroke-width:2.50115;stroke-linecap:square;stroke-linejoin:round;stroke-miterlimit:4;stroke-dasharray:none;stroke-opacity:1"
         transform="scale(1.3329187,1.3333333)"
         clip-path="url(#clipPath32)"
         id="path33" />
    </g>
    <path
       id="path35"
       d="m 608.102,562.293 1.957,-6.074 2.097,6.027 6.379,-0.019 -5.082,3.859 1.988,6.062 -5.238,-3.64 -5.148,3.765 1.843,-6.109 -5.171,-3.734 z"
       style="fill:#4d4d4d;fill-opacity:1;fill-rule:nonzero;stroke:none"
       transform="scale(1.3333333)"
       clip-path="url(#clipPath36)" />
    <path
       id="path37"
       d="m 76.824,692.715 h 739.895 v 0.762 H 76.824 Z"
       style="fill:#d2d2d2;fill-opacity:1;fill-rule:nonzero;stroke:none"
       transform="scale(1.3333333)" />
    <path
       id="path38"
       d="m 75.902,687.82 h 10.156 v 5.625 H 75.902 Z"
       style="fill:#d2d2d2;fill-opacity:1;fill-rule:nonzero;stroke:none"
       transform="scale(1.3333333)" />
    <path
       id="path39"
       d="m 807.48,687.848 h 10.156 v 5.625 H 807.48 Z"
       style="fill:#d2d2d2;fill-opacity:1;fill-rule:nonzero;stroke:none"
       transform="scale(1.3333333)" />
    <path
       id="path40"
       d="m 88.023,728.336 h 20.011"
       style="fill:none;stroke:#743383;stroke-width:3.00138;stroke-linecap:square;stroke-linejoin:round;stroke-miterlimit:4;stroke-dasharray:none;stroke-opacity:1"
       transform="scale(1.3329187,1.3333333)" />
    <path
       id="path41"
       d="m 232.361,725.371 h 20.011"
       style="fill:none;stroke:#3a8bdb;stroke-width:3.00138;stroke-linecap:square;stroke-linejoin:round;stroke-miterlimit:4;stroke-dasharray:none;stroke-opacity:1"
       transform="scale(1.3329187,1.3333333)" />
    <path
       id="path42"
       d="m 232.361,728.414 h 20.011"
       style="fill:none;stroke:#ff853f;stroke-width:3.00138;stroke-linecap:square;stroke-linejoin:round;stroke-miterlimit:4;stroke-dasharray:none;stroke-opacity:1"
       transform="scale(1.3329187,1.3333333)" />
    <path
       id="path43"
       d="m 232.361,731.301 h 20.011"
       style="fill:none;stroke:#15ab50;stroke-width:3.00138;stroke-linecap:square;stroke-linejoin:round;stroke-miterlimit:4;stroke-dasharray:none;stroke-opacity:1"
       transform="scale(1.3329187,1.3333333)" />
    <path
       id="path44"
       d="m 406.068,728.336 h 20.01"
       style="fill:none;stroke:#ee7bc1;stroke-width:3.00138;stroke-linecap:square;stroke-linejoin:round;stroke-miterlimit:4;stroke-dasharray:none;stroke-opacity:1"
       transform="scale(1.3329187,1.3333333)" />
    <path
       id="path45"
       d="m 494.517,728.336 h 20.01"
       style="fill:none;stroke:#4d4d4d;stroke-width:3.00138;stroke-linecap:square;stroke-linejoin:round;stroke-miterlimit:4;stroke-dasharray:none;stroke-opacity:1"
       transform="scale(1.3329187,1.3333333)" />
    <text
       id="text45"
       xml:space="preserve"
       transform="matrix(1.3333333,0,0,1.3337485,164.53689,976.74984)"><tspan
         id="tspan45"
         style="font-variant:normal;font-weight:normal;font-size:12.0018px;font-family:Arial;writing-mode:lr-tb;fill:#000000;fill-opacity:1;fill-rule:nonzero;stroke:none"
         x="0"
         dx="0 0 0 0 0 0 0 0 0 0 0 0 0 0 530.85614 -0.44406664"
         y="0"
         dy="0 0 0 0 0 0 0 0 0 0 0 0 0 0 -1.192559">Posterior MeanTraining Data</tspan><tspan
         id="tspan46"
         style="font-variant:normal;font-weight:normal;font-size:12.0018px;font-family:Arial;writing-mode:lr-tb;fill:#000000;fill-opacity:1;fill-rule:nonzero;stroke:none"
         x="406.34421"
         dx="0 0 -99.758972 0 0 -198.3268"
         y="0.070306547"
         dy="0 0 0 0 0 -1.189621">EIUCBThompson Sampling</tspan></text>
    <path
       id="path46"
       d="m 717.278,731.871 c 0.938,0 1.84,-0.371 2.501,-1.035 0.664,-0.664 1.039,-1.563 1.039,-2.5 0,-0.938 -0.375,-1.84 -1.039,-2.5 -0.661,-0.664 -1.563,-1.039 -2.501,-1.039 -0.938,0 -1.837,0.375 -2.501,1.039 -0.664,0.66 -1.035,1.562 -1.035,2.5 0,0.937 0.371,1.836 1.035,2.5 0.664,0.664 1.563,1.035 2.501,1.035 z"
       style="fill:#000000;fill-opacity:1;fill-rule:nonzero;stroke:#000000;stroke-width:1.00046;stroke-linecap:butt;stroke-linejoin:round;stroke-miterlimit:4;stroke-dasharray:none;stroke-opacity:1"
       transform="scale(1.3329187,1.3333333)" />
    <path
       id="path47"
       d="m 573.219,724.957 1.953,-6.074 2.098,6.023 6.378,-0.015 -5.082,3.855 1.993,6.066 -5.243,-3.644 -5.148,3.766 1.844,-6.11 -5.172,-3.734 z"
       style="fill:#000000;fill-opacity:1;fill-rule:nonzero;stroke:none"
       transform="scale(1.3333333)" />
    <text
       id="text47"
       xml:space="preserve"
       transform="matrix(1.3333333,0,0,1.3337485,796.75203,975.35077)"><tspan
         id="tspan47"
         style="font-variant:normal;font-weight:normal;font-size:12.0018px;font-family:Arial;writing-mode:lr-tb;fill:#000000;fill-opacity:1;fill-rule:nonzero;stroke:none"
         x="0"
         y="0">Next Experiment</tspan></text>
    <path
       id="path48"
       d="m 809.871,61.133 h 6.922 v 105.742 h -6.922 z"
       style="fill:#e6e6f9;fill-opacity:1;fill-rule:nonzero;stroke:none"
       transform="scale(1.3333333)" />
    <g
       id="g50"
       clip-path="url(#clipPath51)">
      <path
         d="m 76.684,61.027 v 105.848 h 29.722 l 3.715,-0.004 h 14.863 l 3.715,-0.004 h 3.715 l 3.715,-0.008 3.719,-0.007 3.714,-0.02 3.715,-0.027 3.715,-0.043 3.715,-0.071 3.715,-0.101 3.715,-0.156 3.715,-0.231 3.718,-0.328 3.715,-0.465 3.715,-0.644 3.715,-0.879 3.715,-1.18 3.715,-1.559 3.714,-2.023 3.715,-2.582 3.719,-3.234 3.715,-3.977 3.715,-4.781 3.715,-5.613 3.714,-6.438 3.715,-7.188 3.715,-7.808 3.719,-8.25 3.715,-8.453 3.714,-8.399 3.715,-8.062 3.715,3.797 3.715,8.258 3.715,8.46 3.715,8.387 3.718,8.063 3.715,7.535 3.715,6.84 3.715,6.047 3.715,5.214 3.715,4.387 3.714,3.613 3.719,2.911 3.715,2.304 3.715,1.785 3.715,1.364 3.715,1.019 3.714,0.742 3.715,0.516 3.715,0.324 3.719,0.156 3.715,-0.027 3.715,-0.23 3.714,-0.493 3.715,-0.824 3.715,-1.254 3.715,-1.789 3.719,-2.437 3.715,-3.176 3.714,-3.988 3.715,-4.828 3.715,-5.649 3.715,-6.387 3.715,-6.992 3.715,-7.414 3.718,-5.621 3.715,7.582 3.715,7.324 3.715,6.852 3.715,6.207 3.715,5.441 3.714,4.614 3.715,3.777 3.719,2.984 3.715,2.27 3.715,1.664 3.715,1.172 3.714,0.793 3.715,0.512 3.715,0.316 3.719,0.191 3.715,0.106 3.715,0.058 3.714,0.032 3.715,0.011 3.715,0.008 3.715,0.004 h 63.164 l 11.144,-0.012 3.715,-0.015 3.715,-0.02 3.715,-0.035 3.715,-0.059 3.719,-0.089 3.714,-0.137 3.715,-0.215 3.715,-0.312 3.715,-0.457 3.715,-0.653 3.715,-0.906 3.718,-1.242 3.715,-1.66 3.715,-2.184 3.715,-2.809 3.715,-3.543 3.715,-4.386 3.715,-5.309 3.714,-6.293 3.719,-7.285 3.715,-8.227 3.715,-9.058 3.715,-9.699 3.714,-10.082 3.715,-10.161 3.715,-9.894 3.719,-9.274 3.715,-8.32 3.715,6.793 3.714,9.133 3.715,9.812 3.715,10.137 3.715,10.125 3.715,9.785 3.719,9.184 3.714,8.383 3.715,7.453 3.715,6.465 3.715,5.476 3.715,4.543 3.715,3.684 3.718,2.926 3.715,2.285 3.715,1.742 3.715,1.309 3.715,0.96 3.715,0.692 3.714,0.484 3.715,0.34 3.719,0.227 3.715,0.148 3.715,0.098 3.715,0.062 3.714,0.039 3.715,0.024 3.715,0.011 3.715,0.008 3.719,0.004 3.715,0.004 h 78.023 V 61.023 H 738.02 l -3.715,-0.003 -3.719,-0.004 -3.715,-0.008 -3.715,-0.012 -3.715,-0.023 -3.714,-0.039 -3.715,-0.063 -3.715,-0.094 -3.715,-0.152 -3.719,-0.223 -3.715,-0.328 -3.714,-0.469 -3.715,-0.656 -3.715,-0.89 -3.715,-1.176 -3.715,-1.5 -3.715,-1.86 -3.718,-2.222 -3.715,-2.555 -3.715,-2.808 -3.715,-2.942 -3.715,-2.891 -3.715,-2.617 -3.714,-2.078 -3.719,-1.269 -3.715,-0.196 -3.715,1.106 -3.715,2.578 -3.715,4.129 -3.714,5.668 -3.715,5.762 -3.715,-6.856 -3.719,-5.406 -3.715,-3.856 -3.715,-2.312 -3.714,-0.867 -3.715,0.398 -3.715,1.43 -3.715,2.195 -3.719,2.68 -3.714,2.918 -3.715,2.929 -3.715,2.774 -3.715,2.5 -3.715,2.156 -3.715,1.797 -3.715,1.441 -3.718,1.121 -3.715,0.848 -3.715,0.621 -3.715,0.442 -3.715,0.308 -3.715,0.207 -3.714,0.141 -3.719,0.09 -3.715,0.054 -3.715,0.036 -3.715,0.019 -3.715,0.016 -11.144,0.011 h -33.441 l -3.715,0.004 h -26.008 l -3.715,0.004 -3.715,0.008 -3.715,0.012 -3.714,0.031 -3.715,0.059 -3.715,0.105 -3.719,0.192 -3.715,0.316 -3.715,0.512 -3.714,0.793 -3.715,1.171 -3.715,1.665 -3.715,2.269 -3.719,2.984 -3.715,3.778 -3.714,4.613 -3.715,5.441 -3.715,6.208 -3.715,6.847 -3.715,7.328 -3.715,7.582 -3.718,-5.621 -3.715,-7.414 -3.715,-6.992 -3.715,-6.391 -3.715,-5.648 -3.715,-4.836 -3.714,-3.996 -3.715,-3.195 -3.719,-2.461 -3.715,-1.832 -3.715,-1.325 -3.715,-0.933 -3.714,-0.66 -3.715,-0.489 -3.715,-0.398 -3.719,-0.383 -3.715,-0.426 -3.715,-0.507 -3.714,-0.629 -3.715,-0.77 -3.715,-0.906 -3.715,-1.02 -3.715,-1.082 -3.719,-1.058 -3.714,-0.911 -3.715,-0.613 -3.715,-0.133 -3.715,0.524 -3.715,1.363 -3.715,2.352 -3.718,3.433 -3.715,4.563 -3.715,5.66 -3.715,6.652 -3.715,3.485 -3.715,-7.071 -3.714,-6.148 -3.715,-5.098 -3.719,-3.976 -3.715,-2.86 -3.715,-1.816 -3.714,-0.906 -3.715,-0.157 -3.715,0.407 -3.715,0.785 -3.719,1.008 -3.715,1.082 -3.714,1.058 -3.715,0.961 -3.715,0.828 -3.715,0.684 -3.715,0.535 -3.715,0.41 -3.718,0.305 -3.715,0.215 -3.715,0.148 -3.715,0.106 -3.715,0.066 -3.715,0.043 -3.715,0.027 -3.714,0.016 -3.719,0.012 -11.145,0.011 H 80.398 Z"
         style="fill:#e6e6f9;fill-opacity:1;fill-rule:nonzero;stroke:none"
         transform="scale(1.3333333)"
         clip-path="url(#clipPath49)"
         id="path50" />
    </g>
    <path
       id="path52"
       d="m 75.934,61.133 h 6.918 v 105.742 h -6.918 z"
       style="fill:#e6e6f9;fill-opacity:1;fill-rule:nonzero;stroke:none"
       transform="scale(1.3333333)"
       clip-path="url(#clipPath53)" />
    <g
       id="g55"
       clip-path="url(#clipPath56)">
      <path
         d="m 76.707,113.949 70.616,-0.066 11.148,-0.215 7.432,-0.379 3.72,-0.312 3.716,-0.438 3.716,-0.594 3.716,-0.777 3.716,-1.004 3.716,-1.262 3.716,-1.539 3.716,-1.836 3.72,-2.117 3.716,-2.383 7.432,-5.32 7.432,-5.449 3.716,-2.477 3.72,-2.136 3.716,-1.68 3.716,-1.121 3.716,-0.5 3.716,0.156 3.716,0.805 3.716,1.398 3.716,1.914 3.72,2.313 3.716,2.593 11.148,8.172 3.716,2.5 3.716,2.262 3.72,1.984 3.716,1.692 3.716,1.406 3.716,1.133 3.716,0.894 3.716,0.684 3.716,0.516 7.436,0.64 7.432,0.317 11.148,0.172 26.016,0.054 174.675,-0.086 7.436,-0.144 7.432,-0.348 3.716,-0.312 3.716,-0.45 3.716,-0.636 3.716,-0.879 3.72,-1.18 3.716,-1.551 3.716,-1.988 3.716,-2.484 3.716,-3.024 3.716,-3.578 3.716,-4.121 3.716,-4.602 3.72,-4.984 11.148,-15.504 3.716,-4.609 3.716,-3.922 3.716,-3.02 3.72,-1.933 3.716,-0.735 3.716,0.516 3.716,1.734 3.716,2.84 3.716,3.781 3.716,4.508 3.716,4.989 11.152,15.496 3.716,4.675 3.716,4.211 3.716,3.676 3.716,3.117 3.72,2.578 3.716,2.071 3.716,1.621 3.716,1.242 3.716,0.926 3.716,0.672 3.716,0.48 7.435,0.559 7.432,0.246 14.864,0.137 59.464,0.015 h 29.736"
         style="fill:none;stroke:#743383;stroke-width:1.50069;stroke-linecap:square;stroke-linejoin:round;stroke-miterlimit:4;stroke-dasharray:none;stroke-opacity:1"
         transform="scale(1.3329187,1.3333333)"
         clip-path="url(#clipPath54)"
         id="path55" />
    </g>
    <g
       id="g58"
       clip-path="url(#clipPath59)">
      <path
         d="m 76.707,61.027 70.616,-0.07 11.148,-0.211 7.432,-0.367 7.436,-0.711 3.716,-0.539 3.716,-0.68 3.716,-0.828 7.432,-2.023 7.436,-2.086 3.716,-0.789 3.716,-0.407 3.716,0.157 3.716,0.906 3.716,1.82 3.716,2.86 3.72,3.972 3.716,5.098 3.716,6.152 3.716,7.067 3.716,-3.485 3.716,-6.648 3.716,-5.66 3.716,-4.567 3.72,-3.433 3.716,-2.348 3.716,-1.363 3.716,-0.528 3.716,0.133 3.716,0.613 3.716,0.911 11.152,3.164 3.716,0.902 3.716,0.77 3.716,0.629 7.432,0.933 7.436,0.781 3.716,0.489 3.716,0.66 3.716,0.933 3.716,1.325 3.716,1.832 3.72,2.464 3.716,3.192 3.716,3.996 3.716,4.836 3.716,5.648 3.716,6.391 3.716,6.992 3.716,7.414 3.719,5.621 3.716,-7.582 3.716,-7.324 3.716,-6.851 3.716,-6.208 3.716,-5.441 3.717,-4.609 3.716,-3.778 3.719,-2.984 3.716,-2.273 3.716,-1.665 3.716,-1.171 3.716,-0.793 3.716,-0.512 3.716,-0.316 7.436,-0.297 11.148,-0.102 63.18,-0.016 29.732,-0.082 7.436,-0.144 7.432,-0.348 3.716,-0.308 3.716,-0.446 3.716,-0.617 3.716,-0.848 3.72,-1.121 3.716,-1.441 3.716,-1.797 3.716,-2.156 3.716,-2.5 3.716,-2.777 7.432,-5.844 3.72,-2.68 3.716,-2.195 3.716,-1.43 3.716,-0.398 3.716,0.867 3.716,2.308 3.716,3.86 3.72,5.406 3.716,6.856 7.432,-11.434 3.716,-4.129 3.716,-2.574 3.716,-1.11 3.716,0.196 3.72,1.273 3.716,2.078 3.716,2.617 11.148,8.641 3.716,2.555 3.72,2.222 3.716,1.86 3.716,1.5 3.716,1.176 3.716,0.886 3.716,0.657 3.716,0.472 7.435,0.551 7.432,0.246 14.864,0.137 59.464,0.019 h 29.736"
         style="fill:none;stroke:#ee7bc1;stroke-width:1.50069;stroke-linecap:square;stroke-linejoin:round;stroke-miterlimit:4;stroke-dasharray:none;stroke-opacity:1"
         transform="scale(1.3329187,1.3333333)"
         clip-path="url(#clipPath57)"
         id="path58" />
    </g>
    <g
       id="g65"
       clip-path="url(#clipPath66)">
      <path
         d="m 237.488,85.859 c 0.938,0 1.837,-0.375 2.501,-1.035 0.664,-0.664 1.035,-1.566 1.035,-2.504 0,-0.937 -0.371,-1.836 -1.035,-2.5 -0.664,-0.664 -1.563,-1.035 -2.501,-1.035 -0.938,0 -1.837,0.371 -2.501,1.035 -0.664,0.664 -1.035,1.563 -1.035,2.5 0,0.938 0.371,1.84 1.035,2.504 0.664,0.66 1.563,1.035 2.501,1.035 z"
         style="fill:#000000;fill-opacity:1;fill-rule:nonzero;stroke:#000000;stroke-width:1.00046;stroke-linecap:butt;stroke-linejoin:round;stroke-miterlimit:4;stroke-dasharray:none;stroke-opacity:1"
         transform="scale(1.3329187,1.3333333)"
         clip-path="url(#clipPath60)"
         id="path63" />
      <path
         d="m 366.114,117.488 c 0.938,0 1.836,-0.375 2.501,-1.039 0.66,-0.66 1.035,-1.562 1.035,-2.5 0,-0.937 -0.375,-1.836 -1.035,-2.5 -0.665,-0.664 -1.563,-1.035 -2.501,-1.035 -0.942,0 -1.84,0.371 -2.505,1.035 -0.66,0.664 -1.035,1.563 -1.035,2.5 0,0.938 0.375,1.84 1.035,2.5 0.665,0.664 1.563,1.039 2.505,1.039 z"
         style="fill:#000000;fill-opacity:1;fill-rule:nonzero;stroke:#000000;stroke-width:1.00046;stroke-linecap:butt;stroke-linejoin:round;stroke-miterlimit:4;stroke-dasharray:none;stroke-opacity:1"
         transform="scale(1.3329187,1.3333333)"
         clip-path="url(#clipPath61)"
         id="path64" />
      <path
         d="m 623.358,57.395 c 0.938,0 1.841,-0.375 2.501,-1.036 0.664,-0.664 1.039,-1.566 1.039,-2.504 0,-0.937 -0.375,-1.835 -1.039,-2.5 -0.66,-0.664 -1.563,-1.035 -2.501,-1.035 -0.938,0 -1.836,0.371 -2.501,1.035 -0.66,0.665 -1.035,1.563 -1.035,2.5 0,0.938 0.375,1.84 1.035,2.504 0.665,0.661 1.563,1.036 2.501,1.036 z"
         style="fill:#000000;fill-opacity:1;fill-rule:nonzero;stroke:#000000;stroke-width:1.00046;stroke-linecap:butt;stroke-linejoin:round;stroke-miterlimit:4;stroke-dasharray:none;stroke-opacity:1"
         transform="scale(1.3329187,1.3333333)"
         clip-path="url(#clipPath62)"
         id="path65" />
    </g>
    <path
       id="path67"
       d="M 73.641,159.234 814.84,158.215"
       style="fill:#ffffff;fill-opacity:0.0754717;fill-rule:nonzero;stroke:none"
       transform="scale(1.3333333)"
       clip-path="url(#clipPath68)" />
    <text
       id="text68"
       xml:space="preserve"
       transform="matrix(1.3333333,0,0,1.3337485,62.836745,142.46926)"
       clip-path="url(#clipPath69)"><tspan
         id="tspan68"
         style="font-variant:normal;font-weight:normal;font-size:24.5037px;font-family:Verdana;writing-mode:lr-tb;fill:#1a1a1a;fill-opacity:1;fill-rule:nonzero;stroke:none"
         x="0"
         y="0">)</tspan></text>
    <text
       id="text69"
       xml:space="preserve"
       transform="matrix(1.3333333,0,0,1.3337485,43.444695,142.46926)"><tspan
         id="tspan69"
         style="font-variant:normal;font-weight:normal;font-size:24.5037px;font-family:Verdana;writing-mode:lr-tb;fill:#1a1a1a;fill-opacity:1;fill-rule:nonzero;stroke:none"
         x="0"
         y="0">a</tspan><tspan
         id="tspan70"
         style="font-variant:normal;font-weight:normal;font-size:24.5037px;font-family:Verdana;writing-mode:lr-tb;fill:#1a1a1a;fill-opacity:1;fill-rule:nonzero;stroke:none"
         x="14.125267"
         dx="0 -26.218935"
         y="202.48395">)b</tspan><tspan
         id="tspan71"
         style="font-variant:normal;font-weight:normal;font-size:24.5037px;font-family:Verdana;writing-mode:lr-tb;fill:#1a1a1a;fill-opacity:1;fill-rule:nonzero;stroke:none"
         x="12.581822"
         dx="0 -23.719559"
         y="375.38287">)c</tspan><tspan
         id="tspan72"
         style="font-variant:normal;font-weight:normal;font-size:24.5037px;font-family:Verdana;writing-mode:lr-tb;fill:#1a1a1a;fill-opacity:1;fill-rule:nonzero;stroke:none"
         x="15.046549"
         dx="0 -26.218935"
         y="524.67841">)d</tspan></text>
  </g>
</svg>
